<svg height="464pt" viewBox="0 0 464 464" width="464pt" xmlns="http://www.w3.org/2000/svg"><path d="m328 360h-48c-17.671875 0-32-14.328125-32-32v-120h-32v88c0 17.671875-14.328125 32-32 32h-24c-17.671875 0-32 14.328125-32 32v64h232v-32c0-17.671875-14.328125-32-32-32zm0 0" fill="#b08149"/><path d="m0 392h464c0 39.765625-32.234375 72-72 72h-320c-39.765625 0-72-32.234375-72-72zm0 0" fill="#edae00"/><path d="m256 216h-16v-40c0-13.253906 10.746094-24 24-24h88c4.417969 0 8-3.582031 8-8v-48h16v48c0 13.253906-10.746094 24-24 24h-88c-4.417969 0-8 3.582031-8 8zm0 0" fill="#b08149"/><path d="m464 112c0-8.835938-7.164062-16-16-16h-24c0-17.671875-14.328125-32-32-32h-24v-12c0-11.046875-8.953125-20-20-20s-20 8.953125-20 20v12h-8c-17.671875 0-32 14.328125-32 32s14.328125 32 32 32h128c8.835938 0 16-7.164062 16-16zm0 0" fill="#77bda3"/><path d="m232 216h-144c-13.253906 0-24-10.746094-24-24s10.746094-24 24-24h48c4.417969 0 8-3.582031 8-8v-64h16v64c0 13.253906-10.746094 24-24 24h-48c-4.417969 0-8 3.582031-8 8s3.582031 8 8 8h144zm0 0" fill="#b08149"/><path d="m28 128h212c8.835938 0 16-7.164062 16-16s-7.164062-16-16-16h-48c0-26.507812-21.492188-48-48-48h-8v-20c0-15.464844-12.535156-28-28-28s-28 12.535156-28 28v4c-22.089844 0-40 17.910156-40 40h-12c-15.464844 0-28 12.535156-28 28s12.535156 28 28 28zm0 0" fill="#4aa785"/><path d="m240 192h32c8.835938 0 16 7.164062 16 16v16h16c13.253906 0 24 10.746094 24 24s-10.746094 24-24 24h-160c-8.835938 0-16-7.164062-16-16s7.164062-16 16-16h40c0-17.671875 14.328125-32 32-32h8c0-8.835938 7.164062-16 16-16zm0 0" fill="#1d9166"/></svg>