<?xml version="1.0" encoding="utf-8"?>
<!-- Generator: Adobe Illustrator 22.1.0, SVG Export Plug-In . SVG Version: 6.00 Build 0)  -->
<svg version="1.1" id="Layer_1" xmlns="http://www.w3.org/2000/svg" xmlns:xlink="http://www.w3.org/1999/xlink" x="0px" y="0px"
	 viewBox="0 0 511 511" style="enable-background:new 0 0 511 511;" xml:space="preserve">
<style type="text/css">
	.st0{fill:#F23F27;}
	.st1{fill:#FFD15C;}
	.st2{fill:#FAB03C;}
	.st3{fill:#F6CB43;}
	.st4{fill:#FD8F3E;}
	.st5{fill:#CF8671;}
	.st6{fill:#BE7560;}
	.st7{fill:#2E893D;}
	.st8{fill:#1C7A39;}
	.st9{fill:#197F2C;}
	.st10{fill:#3E8938;}
	.st11{fill:#116011;}
</style>
<g>
	<path class="st0" d="M172,342.2c-17-19.3-34-39.4-44.8-63.4c-10.8-25.5-13.9-54.9-8.5-82.7s17.8-54.1,35.6-76.5
		c-1.5,19.3,5.4,39.4,18.6,54.1c-7.7-37.1,4.6-77.3,29.4-106.7s58.8-48.7,94.3-61.9c-17.8,18.6-20.1,47.9-13.1,72.7
		c7,24.7,21.6,46.4,34.8,68.8c13.1,22.4,25.5,45.6,26.3,71.1c7-13.1,14.7-26.3,19.3-41c4.6-14.7,7-30.2,3.1-44.8
		c13.9,17,21.6,34,25.5,55.7c3.9,21.6,3.1,44.1,0.8,65.7c-3.1,24-9.3,48.7-22.4,68.8c-15.5,24-40.2,41-67.3,50.3
		C255.5,380.9,208.3,373.9,172,342.2z"/>
	<path class="st1" d="M230.7,370.8c63.4,24.7,126-50.3,91.2-108.2c0-0.8-0.8-0.8-0.8-1.5c3.1,31.7-4.6,54.9-19.3,68
		c7.7-18.6,2.3-40.2-7-58.8c-9.3-17.8-22.4-34-32.5-51c-10.1-17.8-17.8-37.9-13.1-58c-18.6,13.9-31.7,34.8-37.1,57.2
		s-2.3,47.2,7.7,68c-11.6-8.5-20.1-22.4-20.9-37.1c-12.4,14.7-20.1,34-19.3,53.3C179.7,333,203.7,360,230.7,370.8z"/>
</g>
<path class="st2" d="M422.9,335.7c-1.5,0-3-0.4-4.4-1.4c-3.5-2.4-4.4-7.2-2-10.7c18.5-26.8,29.9-56.3,33.9-87.8
	c0.5-4.2,4.4-7.2,8.6-6.7c4.2,0.5,7.2,4.4,6.7,8.6c-4.3,34-16.6,65.8-36.5,94.6C427.7,334.5,425.3,335.7,422.9,335.7z"/>
<path class="st3" d="M409.5,121.3c-3.4,0-6.6-2.3-7.5-5.8c-7.5-29.4-22.3-56.7-42.8-78.8c-2.9-3.1-2.7-8,0.4-10.9
	c3.1-2.9,8-2.7,10.9,0.4c22.3,24,38.4,53.6,46.5,85.5c1.1,4.1-1.4,8.3-5.6,9.4C410.7,121.2,410.1,121.3,409.5,121.3z"/>
<path class="st4" d="M182.5,150.1c-1.1,0-2.2-0.2-3.3-0.7c-3.9-1.8-5.5-6.4-3.7-10.3c12.2-25.9,15.1-55.4,8-83.2
	c-1.1-4.1,1.4-8.3,5.6-9.4c4.1-1,8.3,1.4,9.4,5.6c8,31.2,4.8,64.5-9,93.6C188.1,148.4,185.4,150.1,182.5,150.1z"/>
<path class="st2" d="M60.9,330.2c-2.5,0-4.9-1.2-6.4-3.4c-10.5-15.5-19-32.3-25.5-49.8c-1.5-4,0.6-8.4,4.6-9.9
	c4-1.5,8.4,0.6,9.9,4.6c6,16.4,14,32,23.8,46.5c2.4,3.5,1.4,8.3-2.1,10.7C63.9,329.8,62.4,330.2,60.9,330.2z"/>
<path class="st2" d="M80.3,355.1c-2.1,0-4.2-0.9-5.7-2.6c-1.7-1.9-3.5-3.9-5.1-5.9c-2.7-3.3-2.3-8.1,1-10.9c3.3-2.7,8.1-2.3,10.9,1
	c1.6,1.9,3.2,3.7,4.8,5.5c2.8,3.2,2.6,8-0.6,10.9C84,354.5,82.2,355.1,80.3,355.1z"/>
<path class="st3" d="M86.2,181.8c-0.8-4.2,1.9-8.2,6.1-9.1c4.2-0.8,8.2,1.9,9.1,6.1c5.5,28,26.1,49.7,53.8,56.7
	c4.1,1,6.6,5.2,5.6,9.4c-1,4.1-5.2,6.6-9.4,5.6C117.8,242,92.8,215.7,86.2,181.8z"/>
<path class="st5" d="M334.2,511h-8c-5.7,0-10.3-4.6-10.3-10.3v-51.8h28.5v51.8C344.4,506.4,339.8,511,334.2,511z"/>
<path class="st6" d="M334.2,511h-4v-62.1h14.3v51.8C344.4,506.4,339.8,511,334.2,511z"/>
<path class="st7" d="M322.8,278.4L260.5,450c-1.9,5.1,1.9,10.5,7.4,10.5h124.5c5.4,0,9.2-5.4,7.4-10.5l-62.3-171.6
	C335,271.5,325.3,271.5,322.8,278.4z"/>
<path class="st8" d="M392.5,460.5h-12.3c-0.1-0.4-0.2-0.7-0.3-1.1l-61.4-169.1l4.3-11.9c2.5-6.9,12.2-6.9,14.7,0L399.8,450
	C401.7,455.1,397.9,460.5,392.5,460.5z"/>
<path class="st5" d="M179.1,511h-8c-5.7,0-10.3-4.6-10.3-10.3v-51.8h28.5v51.8C189.4,506.4,184.8,511,179.1,511z"/>
<path class="st6" d="M179.1,511h-4v-62.1h14.3v51.8C189.4,506.4,184.8,511,179.1,511z"/>
<path class="st9" d="M167.7,278.4L105.5,450c-1.9,5.1,1.9,10.5,7.4,10.5h124.5c5.4,0,9.2-5.4,7.4-10.5l-62.3-171.6
	C180,271.5,170.2,271.5,167.7,278.4z"/>
<path class="st10" d="M237.4,460.5h-12.3c-0.1-0.4-0.2-0.7-0.3-1.1l-61.4-169.1l4.3-11.9c2.5-6.9,12.2-6.9,14.7,0L244.7,450
	C246.6,455.1,242.8,460.5,237.4,460.5z"/>
<path class="st5" d="M258.6,511h-12c-5.7,0-10.3-4.6-10.3-10.3v-78.9h32.6v78.9C268.9,506.4,264.3,511,258.6,511z"/>
<path class="st6" d="M258.6,511h-6v-89.2h16.3v78.9C268.9,506.4,264.3,511,258.6,511z"/>
<path class="st11" d="M244.2,227.1L173.1,423c-2.1,5.8,2.2,12,8.4,12h142.2c6.2,0,10.5-6.2,8.4-12L261,227.1
	C258.2,219.3,247.1,219.3,244.2,227.1z"/>
<path class="st4" d="M92.2,300.1c-4.3,0-7.8-3.5-7.8-7.7c0-4.3,3.4-7.7,7.7-7.7h0.1c4.3,0,7.7,3.5,7.7,7.7
	C99.9,296.6,96.5,300.1,92.2,300.1z"/>
<path class="st4" d="M123.5,310.8C123.5,310.8,123.5,310.8,123.5,310.8c-4.3,0-7.8-3.5-7.8-7.8c0-4.2,3.4-7.6,7.7-7.6h0.1h0.1
	c4.3,0,7.7,3.5,7.6,7.8C131.2,307.4,127.7,310.8,123.5,310.8z"/>
<path class="st2" d="M312,75.7c-4.3,0-7.8-3.5-7.8-7.7c0-4.3,3.4-7.7,7.7-7.7h0.1c4.3,0,7.7,3.5,7.7,7.7
	C319.7,72.2,316.3,75.7,312,75.7z"/>
<path class="st3" d="M431.6,108.3c-4.3,0-7.8-3.5-7.8-7.7c0-4.3,3.4-7.7,7.7-7.7h0.1c4.3,0,7.7,3.5,7.7,7.7
	C439.3,104.9,435.8,108.3,431.6,108.3z"/>
<g>
	<path class="st4" d="M156.6,165C156.5,165,156.5,165,156.6,165c-4.3,0-7.8-3.5-7.8-7.8c0-4.2,3.4-7.6,7.7-7.6h0.1h0.1
		c4.3,0,7.7,3.5,7.6,7.8C164.2,161.6,160.8,165,156.6,165z"/>
	<path class="st4" d="M140.5,152.3C140.5,152.3,140.5,152.3,140.5,152.3c-4.3,0-7.8-3.5-7.8-7.8c0-4.2,3.4-7.6,7.7-7.6h0.1h0.1
		c4.3,0,7.7,3.5,7.6,7.8C148.2,148.9,144.7,152.3,140.5,152.3z"/>
</g>
<path class="st4" d="M344.5,120.2C344.4,120.2,344.4,120.2,344.5,120.2c-4.3,0-7.8-3.5-7.8-7.8c0-4.2,3.4-7.6,7.7-7.6h0.1h0.1
	c4.3,0,7.7,3.5,7.6,7.8C352.1,116.8,348.7,120.2,344.5,120.2z"/>
<path class="st4" d="M415.2,274.3C415.2,274.3,415.1,274.3,415.2,274.3c-4.3,0-7.8-3.5-7.8-7.8c0-4.2,3.4-7.6,7.7-7.6h0.1h0.1
	c4.3,0,7.7,3.5,7.6,7.8C422.8,270.9,419.4,274.3,415.2,274.3z"/>
<path class="st4" d="M148.8,104.8C148.8,104.8,148.8,104.8,148.8,104.8c-4.3,0-7.8-3.5-7.8-7.8c0-4.2,3.4-7.6,7.7-7.6h0.1h0.1
	c4.3,0,7.7,3.5,7.6,7.8C156.5,101.4,153.1,104.8,148.8,104.8z"/>
</svg>
