<?xml version="1.0" encoding="iso-8859-1"?>
<!-- Generator: Adobe Illustrator 19.0.0, SVG Export Plug-In . SVG Version: 6.00 Build 0)  -->
<svg version="1.1" id="Capa_1" xmlns="http://www.w3.org/2000/svg" xmlns:xlink="http://www.w3.org/1999/xlink" x="0px" y="0px"
	 viewBox="0 0 378.683 378.683" style="enable-background:new 0 0 378.683 378.683;" xml:space="preserve">
<g id="XMLID_450_">
	<g id="XMLID_451_">
		<polygon id="XMLID_452_" style="fill:#DA7D60;" points="167.023,134.593 159.743,100.613 189.341,78.294 219.341,103.641 
			211.66,134.593 		"/>
		<polygon id="XMLID_453_" style="fill:#D66C5B;" points="189.341,78.294 189.341,134.593 211.66,134.593 219.341,103.641 		"/>
	</g>
	<polygon id="XMLID_45_" style="fill:#D66C5B;" points="206.504,136.907 215.482,101.441 251.987,99.019 265.571,132.989 
		237.461,156.406 	"/>
	<polygon id="XMLID_44_" style="fill:#D66C5B;" points="243.252,164.066 249.594,128.034 285.822,122.931 299.341,163.641 
		275.561,181.231 	"/>
	<polygon id="XMLID_43_" style="fill:#DA7D60;" points="178.445,136.6 169.111,101.226 132.583,99.171 119.341,143.641 
		147.685,156.409 	"/>
	<path id="XMLID_42_" style="fill:#DB8269;" d="M213.673,299.017l-3.883-1.624c-6.969-2.915-10.255-10.929-7.34-17.898
		l16.483-49.402l29.121,12.182l-16.483,49.402C228.655,298.646,220.642,301.932,213.673,299.017z"/>
	<path id="XMLID_41_" style="fill:#DB8269;" d="M265.663,300.389h-4.209c-7.555,0-13.679-6.124-13.679-13.679v-63.069h31.566v63.069
		C279.341,294.264,273.217,300.389,265.663,300.389z"/>
	<path id="XMLID_40_" style="fill:#DF936F;" d="M115.001,299.017l-3.883-1.624c-6.969-2.915-10.255-10.929-7.34-17.898
		l16.483-49.402l29.121,12.182l-16.483,49.402C129.983,298.646,121.97,301.932,115.001,299.017z"/>
	<path id="XMLID_39_" style="fill:#DF936F;" d="M166.991,300.389h-4.209c-7.555,0-13.679-6.124-13.679-13.679V234h31.566v52.71
		C180.669,294.264,174.545,300.389,166.991,300.389z"/>
	<g id="XMLID_454_">
		<path id="XMLID_38_" style="fill:#DF936F;" d="M92.709,224.892c0,0-33.911,31.224-44.855,29.384
			c-33.513-5.635-29.312-29.384-29.312-29.384L0,206.35c0,0,29.572,5.501,37.084-18.542c11.964-38.291-17.357-64.792-17.357-64.792
			s38.909-23.908,72.982,9.166c14.143,13.728,38.938-18.542,92.709-18.542s119.548,57.866,148.335,55.626
			c44.123-3.434,38.652-46.673,42.248-46.25c3.985,0.469,7.188,37.19-18.751,56.254c-47.862,35.175-54.504,23.596-65.63,37.503
			s-20.314,49.691-84.381,46.878c-87.779-3.854-83.01-34.124-95.989-38.759S92.709,224.892,92.709,224.892z"/>
		<circle id="XMLID_455_" cx="60.092" cy="192.89" r="9.249"/>
		<path id="XMLID_458_" style="fill:#DB8269;" d="M376.002,123.016c-3.596-0.423,1.865,49.813-42.248,46.25
			c-29.412-2.375-91.403-52.853-144.412-55.516v148.639c5.499,0.549,11.442,0.979,17.899,1.262
			c64.067,2.813,73.256-32.972,84.381-46.878c11.125-13.906,17.768-2.327,65.63-37.502
			C383.19,160.206,379.987,123.485,376.002,123.016z"/>
	</g>
	<circle id="XMLID_459_" style="fill:#FFE477;" cx="159.341" cy="159.341" r="10"/>
	<circle id="XMLID_460_" style="fill:#FFE477;" cx="184.341" cy="134.341" r="15"/>
	<circle id="XMLID_461_" style="fill:#F6D563;" cx="209.341" cy="159.341" r="10"/>
	<path id="XMLID_462_" style="fill:#F6D563;" d="M189.341,120.213v28.256c5.822-2.061,10-7.6,10-14.128
		C199.341,127.813,195.163,122.274,189.341,120.213z"/>
</g>
<g>
</g>
<g>
</g>
<g>
</g>
<g>
</g>
<g>
</g>
<g>
</g>
<g>
</g>
<g>
</g>
<g>
</g>
<g>
</g>
<g>
</g>
<g>
</g>
<g>
</g>
<g>
</g>
<g>
</g>
</svg>
