<?xml version="1.0" encoding="iso-8859-1"?>
<!-- Generator: Adobe Illustrator 19.0.0, SVG Export Plug-In . SVG Version: 6.00 Build 0)  -->
<svg version="1.1" id="Capa_1" xmlns="http://www.w3.org/2000/svg" xmlns:xlink="http://www.w3.org/1999/xlink" x="0px" y="0px"
	 viewBox="0 0 468.293 468.293" style="enable-background:new 0 0 468.293 468.293;" xml:space="preserve">
<path style="fill:#3A556A;" d="M360.541,304.296c-2.407-0.135-5.112-0.635-7.545-1.204c-2.62-0.612-3.102-4.119-0.749-5.425
	c32.258-17.902,49.866-45.719,57.747-61.436c1.374-2.74-1.855-5.439-4.364-3.678c-2.224,1.561-4.311,2.786-6.24,3.743
	c-3.061,1.52-5.852-2.449-3.343-4.769c19.421-17.961,37.676-54.178,45.899-71.901c1.145-2.468-1.391-5.051-3.863-3.915
	c-3.054,1.403-6.322,2.321-9.316,2.922c-2.934,0.588-4.752-3.136-2.485-5.088c25.256-21.741,34.266-56.955,37.291-74.389
	c0.453-2.611-2.411-4.352-4.622-2.891c-3.733,2.466-8.205,3.272-11.774,3.456c-2.546,0.131-4.018-2.855-2.388-4.815
	C475.032,38.54,462.685,8.91,458.805,1.58c-0.585-1.105-1.767-1.716-3.006-1.555c-8.224,1.069-39.541,8.114-51.743,53.813
	c-0.658,2.463-3.946,2.987-5.31,0.833c-1.912-3.019-3.838-7.135-3.983-11.607c-0.085-2.649-3.161-3.98-5.03-2.102
	c-12.481,12.543-36.013,40.246-39.162,73.421c-0.283,2.979-4.373,3.646-5.588,0.912c-1.24-2.79-2.379-5.987-2.999-9.291
	c-0.502-2.674-4.075-3.251-5.427-0.891c-9.712,16.953-28.722,52.78-32.157,79.009c-0.444,3.389-5.295,3.404-5.824,0.028
	c-0.333-2.128-0.54-4.539-0.551-7.257c-0.012-3.065-4.082-4.141-5.524-1.436c-8.272,15.514-20.799,45.959-16.769,82.631
	c0.294,2.675-2.846,4.308-4.86,2.524c-1.87-1.657-3.841-3.577-5.343-5.463c-1.429-1.795-4.274-1.212-5.041,0.95
	c-2.937,8.273-6.272,25.347,2.804,49.377c0.902,2.389-1.488,4.782-3.836,3.776c-0.076-0.032-0.151-0.066-0.227-0.1
	c-2.344-1.047-4.872,0.983-4.148,3.445c3.327,11.316,8.626,26.863,16.448,43.412c0.57,1.206,1.917,1.903,3.231,1.671
	c18.027-3.18,33.778-7.839,44.935-11.663c2.428-0.832,2.623-4.068,0.415-5.377c-0.072-0.042-0.142-0.085-0.212-0.128
	c-2.178-1.334-1.607-4.668,0.865-5.312c24.856-6.479,36.863-19.067,41.918-26.245C364,307.083,362.832,304.425,360.541,304.296z"/>
<path style="fill:#D5D6DB;" d="M436.958,44.674c0,0-153.601,234.485-201.723,407.43l11.319-15.998
	C246.553,436.106,378.974,143.944,436.958,44.674z"/>
<path style="fill:#64798A;" d="M226.485,455.38c-62.975,1.324-79.727-12.822-84.078-21.328c-6.38-12.476,4.932-27.748,5.229-28.153
	c2.561-3.739,10.351-15.114,3.658-23.204c-3.673-4.455-13.443-16.294-106.578,24.342c-7.457,3.242-15.107,4.109-22.089,2.504
	c-1.338-0.306-5.729-1.457-6.085-3.383c-1.785-9.654,29.726-38.112,60.436-58.808l-8.299-3.527
	c-3.572-1.518-7.643-1.059-10.785,1.219c-22.128,16.043-57.401,44.87-53.967,63.446c0.872,4.728,4.326,10.924,15.824,13.56
	c9.703,2.235,20.099,1.107,30.099-3.253c57.097-24.911,85.271-30.361,91.195-28.019c-0.165,0.972-0.872,3.317-3.804,7.61
	c-0.667,0.875-16.29,21.739-6.301,41.426c9.599,18.913,39.147,28.482,87.897,28.482c2.582,0,5.218-0.031,7.91-0.081
	c3.538-0.07,6.355-3.002,6.284-6.546C232.961,458.122,230.199,455.269,226.485,455.38z"/>
<g>
</g>
<g>
</g>
<g>
</g>
<g>
</g>
<g>
</g>
<g>
</g>
<g>
</g>
<g>
</g>
<g>
</g>
<g>
</g>
<g>
</g>
<g>
</g>
<g>
</g>
<g>
</g>
<g>
</g>
</svg>
