<?xml version="1.0" encoding="iso-8859-1"?>
<!-- Generator: Adobe Illustrator 19.0.0, SVG Export Plug-In . SVG Version: 6.00 Build 0)  -->
<svg version="1.1" id="Layer_1" xmlns="http://www.w3.org/2000/svg" xmlns:xlink="http://www.w3.org/1999/xlink" x="0px" y="0px"
	 viewBox="0 0 512 512" style="enable-background:new 0 0 512 512;" xml:space="preserve">
<g>
	<polygon style="fill:#FFA91E;" points="324.891,167.266 341.153,262.081 256,217.314 170.847,262.081 187.109,167.266 
		118.218,100.106 213.423,86.273 256,0 298.577,86.273 393.782,100.106 	"/>
	<polygon style="fill:#FFA91E;" points="409.944,253.46 409.944,341.133 256.9,403.303 256,402.943 102.056,341.183 102.056,253.46 
		256,315.219 	"/>
	<polygon style="fill:#FFA91E;" points="409.944,362.157 409.944,449.83 256.9,512 256,511.64 102.056,449.88 102.056,362.157 
		256,423.916 	"/>
</g>
<g>
	<polygon style="fill:#FF8900;" points="341.153,262.081 256,217.314 256,0 298.577,86.273 393.782,100.106 324.891,167.266 	"/>
	<polygon style="fill:#FF8900;" points="409.944,253.46 409.944,341.133 256.9,403.303 256,402.943 256,315.219 	"/>
	<polygon style="fill:#FF8900;" points="256,423.916 409.944,362.157 409.944,449.83 256.9,512 256,511.64 	"/>
</g>
<g>
</g>
<g>
</g>
<g>
</g>
<g>
</g>
<g>
</g>
<g>
</g>
<g>
</g>
<g>
</g>
<g>
</g>
<g>
</g>
<g>
</g>
<g>
</g>
<g>
</g>
<g>
</g>
<g>
</g>
</svg>
