<svg id="Capa_1" enable-background="new 0 0 512 512" height="512" viewBox="0 0 512 512" width="512" xmlns="http://www.w3.org/2000/svg" xmlns:xlink="http://www.w3.org/1999/xlink"><linearGradient id="SVGID_1_" gradientUnits="userSpaceOnUse" x1="8.753" x2="524.202" y1="401.161" y2="103.566"><stop offset="0" stop-color="#dcfdee" stop-opacity="0"/><stop offset=".6288" stop-color="#d2f3e4"/></linearGradient><path d="m418.32 2.5c-55.666-9.521-178.298 12.183-200.004 105.017-14.431 61.722-14.007 112.075-50.427 113.02-21.67.562-32.97-44.31-62.889-48.001-39.047-4.817-66.145 27.695-83.057 57.138-37.205 64.772-25.571 174.918 23.354 228.632 118.488 130.086 259.197-5.952 319.358-112.309 38.585-68.213 125.637-123.352 143.767-200.248 15.177-64.376-18.503-131.003-90.102-143.249z" fill="url(#SVGID_1_)"/><path d="m360.246 274.783h-29.65c8.475-6.159 16.673-13.128 24.447-20.903 29.51-29.51 47.531-65.076 52.957-99.043-16.053 2.564-32.463 7.946-48.422 16.02 9.989-24.858 14.268-50.192 12.995-73.57-28.663 11.159-56.444 32.438-78.169 61.894-3.073-42.926-17.13-81.6-38.405-110.965-21.274 29.365-35.332 68.039-38.405 110.965-21.725-29.457-49.505-50.735-78.169-61.894-1.273 23.378 3.006 48.712 12.995 73.57-15.959-8.074-32.369-13.455-48.422-16.02 5.427 33.967 23.447 69.533 52.957 99.043 7.775 7.775 15.972 14.743 24.447 20.903h-29.65c-5.523 0-10 4.477-10 10v169c0 16.569 13.431 30 30 30h168.491c16.569 0 30-13.431 30-30v-169c.003-5.523-4.475-10-9.997-10z" fill="#6583fe" opacity=".2"/><ellipse cx="314.342" cy="167.626" fill="#00d890" rx="107.48" ry="32.587" transform="matrix(.542 -.841 .841 .542 3.142 341.015)"/><path d="m367.827 125.282c-4.942 20.2-13.615 40.633-26.097 60-22.61 35.081-53.57 60.2-85.619 72.682-1.877-34.348 8.229-72.915 30.838-107.996 7.563-11.738 16.069-22.365 25.253-31.771 1.81 12.271 2.765 24.831 2.821 37.546 16.458-12.937 34.314-23.231 52.804-30.461z" fill="#00b574"/><ellipse cx="197.658" cy="167.626" fill="#00d890" rx="32.587" ry="107.48" transform="matrix(.841 -.542 .542 .841 -59.295 133.824)"/><path d="m255.889 257.965c-32.049-12.482-63.01-37.601-85.619-72.682-12.482-19.367-21.155-39.8-26.097-60 18.49 7.229 36.347 17.524 52.804 30.461.056-12.715 1.011-25.275 2.821-37.546 9.184 9.406 17.69 20.033 25.253 31.771 22.609 35.08 32.715 73.648 30.838 107.996z" fill="#00b574"/><ellipse cx="256" cy="156.994" fill="#01eca5" rx="39.044" ry="128.777"/><ellipse cx="332" cy="210.838" fill="#02ffb3" rx="107.48" ry="32.587" transform="matrix(.707 -.707 .707 .707 -51.844 296.512)"/><ellipse cx="180" cy="210.838" fill="#02ffb3" rx="32.587" ry="107.48" transform="matrix(.707 -.707 .707 .707 -96.364 189.032)"/><path d="m256 262.965c-2.761 0-5-2.239-5-5v-169.351c0-2.761 2.239-5 5-5s5 2.239 5 5v169.351c0 2.761-2.239 5-5 5z" fill="#00d890"/><path d="m340.246 463.783h-168.492c-16.569 0-30-13.431-30-30v-169c0-5.523 4.477-10 10-10h208.491c5.523 0 10 4.477 10 10v169c.001 16.568-13.431 30-29.999 30z" fill="#fff"/><path d="m412.938 135.626c.253-1.583-.269-3.191-1.402-4.324s-2.742-1.656-4.324-1.402c-36.402 5.816-72.551 25.121-101.79 54.359-2.722 2.722-5.352 5.508-7.899 8.345 1.663-11.633 2.522-23.543 2.522-35.61 0-5.469-.185-10.905-.53-16.3 18.685-24.857 42.695-44.512 68.278-55.985.058 11.91-1.328 24.162-4.138 36.522-.612 2.693 1.074 5.372 3.767 5.984 2.694.613 5.372-1.075 5.984-3.767 3.581-15.753 4.981-31.375 4.161-46.432-.087-1.601-.937-3.062-2.284-3.931s-3.029-1.04-4.523-.457c-26.75 10.413-52.178 29.278-72.583 53.665-4.626-37.811-17.76-72.897-38.128-101.01-.94-1.298-2.446-2.066-4.049-2.066s-3.108.769-4.049 2.066c-20.37 28.116-33.504 63.207-38.129 101.021-20.403-24.443-45.524-43.143-72.582-53.676-1.495-.583-3.176-.411-4.523.457-1.347.869-2.196 2.33-2.284 3.931-1.144 21.003 2.04 42.851 9.133 64.199-12.689-5.396-25.717-9.229-38.778-11.316-1.579-.253-3.19.269-4.324 1.402-1.133 1.133-1.655 2.742-1.402 4.324 5.816 36.402 25.121 72.552 54.359 101.79 4.349 4.349 8.855 8.471 13.489 12.367h-15.156c-8.271 0-15 6.729-15 15v169c0 19.299 15.701 35 35 35h168.491c19.299 0 35-15.701 35-35v-169c0-8.271-6.729-15-15-15h-15.168c4.637-3.898 9.149-8.016 13.501-12.367 29.238-29.237 48.544-65.387 54.36-101.789zm-156.938-98.639c21.998 33.117 34.044 75.427 34.044 120.007 0 17.747-1.923 35.127-5.611 51.717-9.525 13.005-17.3 26.839-23.1 41.073h-10.678c-5.801-14.237-13.569-28.077-23.098-41.084-3.686-16.585-5.602-33.963-5.602-51.705.001-44.581 12.047-86.891 34.045-120.008zm-111.793 47.717c25.811 11.538 49.515 31.024 68.279 56.002-.345 5.391-.529 10.822-.529 16.288 0 12.071.866 23.983 2.53 35.62-2.55-2.84-5.182-5.63-7.907-8.355-15.181-15.181-32.228-27.676-50.204-37.004-8.078-20.648-12.278-41.961-12.169-62.551zm221.039 180.079v169c0 13.785-11.215 25-25 25h-168.492c-13.785 0-25-11.215-25-25v-169c0-2.757 2.243-5 5-5h44.246c2.761 0 5-2.239 5-5s-2.239-5-5-5h-12.953c-7.869-5.823-15.428-12.312-22.555-19.438-25.866-25.866-43.526-57.319-50.254-89.269 31.949 6.728 63.403 24.388 89.269 50.254 17.46 17.459 31.169 37.467 40.312 58.453h-9.819c-2.761 0-5 2.239-5 5s2.239 5 5 5h130.246c2.756 0 5 2.243 5 5zm-36.29-15h-56.78c9.143-20.986 22.857-40.993 40.316-58.453 25.866-25.866 57.319-43.526 89.269-50.254-6.728 31.95-24.388 63.403-50.254 89.269-7.126 7.126-14.682 13.616-22.551 19.438z" fill="#2626bc"/><path d="m276 301.102h-40c-2.761 0-5-2.239-5-5s2.239-5 5-5h40c2.761 0 5 2.239 5 5s-2.239 5-5 5z" fill="#02ffb3"/><path d="m419 360.954c-2.761 0-5-2.239-5-5 0-3.309-2.691-6-6-6-2.761 0-5-2.239-5-5s2.239-5 5-5c3.309 0 6-2.691 6-6 0-2.761 2.239-5 5-5s5 2.239 5 5c0 3.309 2.691 6 6 6 2.761 0 5 2.239 5 5s-2.239 5-5 5c-3.309 0-6 2.691-6 6 0 2.761-2.239 5-5 5z" fill="#01eca5"/><path d="m104 262.965c-2.761 0-5-2.239-5-5 0-3.309-2.691-6-6-6-2.761 0-5-2.239-5-5s2.239-5 5-5c3.309 0 6-2.692 6-6 0-2.761 2.239-5 5-5s5 2.239 5 5c0 3.309 2.691 6 6 6 2.761 0 5 2.239 5 5s-2.239 5-5 5c-3.309 0-6 2.691-6 6 0 2.761-2.239 5-5 5z" fill="#6583fe"/><path d="m182.294 58.217c-1.28 0-2.559-.488-3.536-1.464-1.953-1.953-1.953-5.119 0-7.071l10-10c1.953-1.952 5.118-1.952 7.071 0 1.953 1.953 1.953 5.119 0 7.071l-10 10c-.976.976-2.255 1.464-3.535 1.464z" fill="#ff7eb8"/><path d="m83 336.304c-1.28 0-2.559-.488-3.536-1.464-1.953-1.953-1.953-5.119 0-7.071l10-10c1.953-1.952 5.118-1.952 7.071 0 1.953 1.953 1.953 5.119 0 7.071l-10 10c-.976.976-2.255 1.464-3.535 1.464z" fill="#01eca5"/><path d="m430 203.977c-1.28 0-2.559-.488-3.536-1.464-1.953-1.953-1.953-5.119 0-7.071l10-10c1.953-1.952 5.118-1.952 7.071 0 1.953 1.953 1.953 5.119 0 7.071l-10 10c-.976.976-2.255 1.464-3.535 1.464z" fill="#ff7eb8"/></svg>