<svg id="Capa_1" enable-background="new 0 0 497 497" height="512" viewBox="0 0 497 497" width="512" xmlns="http://www.w3.org/2000/svg"><g><path d="m196.695 218.201c-14.325-23.618-45.084-31.152-68.702-16.827s-31.152 45.084-16.827 68.702 50.464 40.022 74.082 25.697c23.618-14.324 25.771-53.954 11.447-77.572z" fill="#d4d4d2"/><circle cx="314.224" cy="423.986" fill="#f9f097" r="38.835"/><path d="m116.237 355.73-49.684 51.336c-3.089 3.192-3.695 8.041-1.486 11.895 2.209 3.853 6.7 5.782 11.015 4.729l69.407-16.926z" fill="#423e4f"/><path d="m135.058 241.561c-19.532-19.532-51.2-19.532-70.733 0-19.532 19.532-19.532 51.2 0 70.733 19.532 19.532 58.536 26.868 78.069 7.336 19.533-19.533 12.197-58.537-7.336-78.069z" fill="#e2e2e2"/><path d="m247.121 407.023c-2.78 3.72-5.759 7.189-8.909 10.339-33.126 33.116-86.82 33.116-119.936 0-33.126-33.126-33.126-86.82 0-119.936 3.16-3.16 6.639-6.149 10.379-8.939z" fill="#f9f097"/><path d="m157.701 439.681c6.517 1.618 13.245 2.461 19.996 2.502h.04c-17.914-16.693-28.807-38.705-28.807-62.834 0-19.163 6.872-36.989 18.672-51.878l-38.965-38.988c-59.092 44.083-39.987 134.051 29.064 151.198z" fill="#fccb88"/><path d="m247.121 407.023c-101.178-39.565-118.226-117.446-118.466-118.536 35.376-26.457 93.729-35.166 123.696-5.209 29.966 29.976 21.237 88.369-5.23 123.745z" fill="#5c586f"/><g><path d="m258.513 117.268c-3.684 0-6.898-2.716-7.419-6.469-5.672-40.82 12.298-63.265 28.373-74.906 17.095-12.38 35.395-15.128 36.165-15.238 4.1-.59 7.902 2.255 8.492 6.355.589 4.094-2.247 7.891-6.337 8.489-2.501.373-60.649 9.808-51.835 73.236.57 4.103-2.294 7.891-6.396 8.461-.351.048-.699.072-1.043.072z" fill="#423e4f"/></g><g><path d="m350.569 122.266c-4.133 0-7.488-3.345-7.5-7.48-.109-41.212 20.727-61.026 38.225-70.391 18.61-9.959 37.113-10.211 37.892-10.217h.057c4.116 0 7.468 3.321 7.499 7.444.031 4.135-3.292 7.514-7.424 7.556-2.508.032-61.419 1.519-61.249 65.568.011 4.142-3.338 7.509-7.48 7.52-.006 0-.013 0-.02 0z" fill="#423e4f"/></g><path d="m185.105 164.221c19.458-48.684 67.042-83.08 122.666-83.08s103.218 34.396 122.676 83.08l-122.671 25.63z" fill="#5c586f"/><path d="m254.12 285.175c-.582-.638-1.155-1.283-1.769-1.897-29.966-29.957-88.32-21.248-123.696 5.209.136.618 5.675 25.887 28.846 54.87 16.008-32.244 52.868-55.51 96.619-58.182z" fill="#4f4c5f"/><path d="m294.861 81.789c-49.991 4.854-91.823 37.563-109.756 82.432l44.522 9.302c9.946-38.162 33.578-70.657 65.234-91.734z" fill="#4f4c5f"/><path d="m439.825 213.186c0 72.931-59.123 132.045-132.055 132.045-72.921 0-132.045-59.113-132.045-132.045 0-17.298 3.33-33.826 9.379-48.964l.01.01s58.883-63.783 122.656 0c63.783-63.783 122.666 0 122.666 0l.01-.01c6.049 15.137 9.379 31.666 9.379 48.964z" fill="#f9f097"/><g><path d="m282.83 441.617c-.627 0-1.257-.025-1.892-.078-27.281-2.272-51.892-18.865-64.228-43.303-5.599-11.092-1.146-24.623 9.946-30.222 11.094-5.599 24.623-1.144 30.222 9.945 5.338 10.576 15.989 17.757 27.795 18.739 12.382 1.032 21.584 11.905 20.553 24.287-.98 11.748-10.817 20.632-22.396 20.632z" fill="#423e4f"/></g><path d="m196.815 413c-3.884-11.803-16.601-18.222-28.403-14.338-11.804 3.886-18.22 16.602-14.338 28.402 3.704 11.253 1.25 23.862-6.404 32.905-8.026 9.485-6.844 23.68 2.64 31.707 8.998 7.614 22.237 6.94 30.424-1.247.443-.443.871-.907 1.283-1.393 17.685-20.898 23.355-50.033 14.798-76.036z" fill="#423e4f"/><circle cx="316.7" cy="28.078" fill="#f9f097" r="28.078"/><path d="m336.7 46.156c-15.507 0-28.078-12.571-28.078-28.078 0-6.868 2.469-13.157 6.564-18.036-14.803.787-26.564 13.037-26.564 28.036 0 15.507 12.571 28.078 28.078 28.078 8.639 0 16.363-3.905 21.514-10.042-.501.027-1.006.042-1.514.042z" fill="#fccb88"/><ellipse cx="419.242" cy="41.678" fill="#f9f097" rx="28.078" ry="28.078" transform="matrix(.138 -.991 .991 .138 320.32 451.209)"/><path d="m435.452 59.499c-15.365-2.093-26.124-16.246-24.031-31.611.743-5.453 3.01-10.321 6.306-14.245-13.194.699-24.457 10.67-26.306 24.245-2.093 15.365 8.666 29.518 24.031 31.611 9.912 1.351 19.314-2.653 25.305-9.786-1.741.093-3.514.03-5.305-.214z" fill="#fccb88"/><path d="m224.442 214.118c0-28.434 7.389-55.111 20.315-78.165-34.839 1.428-59.641 28.278-59.641 28.278l-.01-.01c-6.049 15.138-9.379 31.667-9.379 48.964 0 67.472 50.604 123.11 115.92 131.063-40.599-28.521-67.205-76.163-67.205-130.13z" fill="#fccb88"/><g><g><g><ellipse cx="229.722" cy="245.66" fill="#ff9dd3" rx="28.8" ry="22.935"/></g><g><ellipse cx="385.828" cy="245.66" fill="#ff9dd3" rx="28.8" ry="22.935"/></g></g></g><g><path d="m246.507 231.083c-4.142 0-7.5-3.358-7.5-7.5v-11.773c0-4.142 3.358-7.5 7.5-7.5s7.5 3.358 7.5 7.5v11.773c0 4.142-3.358 7.5-7.5 7.5z" fill="#423e4f"/></g><g><path d="m369.044 231.083c-4.142 0-7.5-3.358-7.5-7.5v-11.773c0-4.142 3.358-7.5 7.5-7.5s7.5 3.358 7.5 7.5v11.773c0 4.142-3.358 7.5-7.5 7.5z" fill="#423e4f"/></g><g><path d="m307.775 238.091c-8.358 0-16.307-3.62-21.808-9.931-2.721-3.123-2.396-7.86.727-10.582 3.124-2.721 7.86-2.396 10.582.726 2.651 3.042 6.478 4.786 10.499 4.786s7.848-1.744 10.499-4.786c2.721-3.123 7.459-3.448 10.582-.727s3.448 7.459.727 10.582c-5.5 6.312-13.449 9.932-21.808 9.932z" fill="#423e4f"/></g></g></svg>