<svg height="512pt" viewBox="-57 0 512 512.00009" width="512pt" xmlns="http://www.w3.org/2000/svg"><g fill="#ffa812"><path d="m120.273438 462.765625c3.667968-2.144531 4.917968-6.847656 2.792968-10.53125-2.132812-3.699219-6.859375-4.96875-10.558594-2.832031-1.011718.582031-24.746093 14.640625-20.871093 44.148437.511719 3.890625 3.832031 6.722657 7.652343 6.722657.335938 0 .675782-.023438 1.015626-.066407 4.234374-.554687 7.214843-4.4375 6.65625-8.671875-2.496094-19.035156 12.578124-28.328125 13.3125-28.769531zm0 0"/><path d="m158.871094 461.800781c-3.324219-2.679687-8.1875-2.15625-10.871094 1.164063-.136719.171875-.839844 1.058594-1.839844 2.515625.320313-2.039063-.160156-4.199219-1.527344-5.957031-2.621093-3.367188-7.476562-3.972657-10.84375-1.355469-.878906.683593-21.457031 16.976562-21.113281 41.519531.0625 4.230469 3.507813 7.621094 7.726563 7.621094.039062 0 .074218 0 .113281-.003906 4.265625-.058594 7.679687-3.566407 7.617187-7.835938-.214843-15.347656 12.558594-26.902344 14.820313-28.828125-4.726563 8.433594-10.304687 22.597656-4.964844 36.414063 1.183594 3.0625 4.109375 4.945312 7.210938 4.945312.925781 0 1.867187-.167969 2.785156-.523438 3.980469-1.539062 5.960937-6.011718 4.421875-9.996093-4.105469-10.625 4.121094-24.40625 7.640625-28.828125 2.667969-3.320313 2.144531-8.175782-1.175781-10.851563zm0 0"/><path d="m286.644531 449.402344c-3.699219-2.136719-8.449219-.882813-10.582031 2.816406s-.890625 8.414062 2.808594 10.542969c.648437.386719 15.828125 9.675781 13.320312 28.773437-.554687 4.234375 2.425782 8.117188 6.65625 8.671875.339844.042969.679688.066407 1.015625.066407 3.820313 0 7.140625-2.832032 7.65625-6.722657 3.871094-29.507812-19.863281-43.566406-20.875-44.148437zm0 0"/><path d="m265.367188 458.171875c-3.359376-2.613281-8.191407-2.011719-10.820313 1.339844-1.382813 1.761719-1.863281 3.945312-1.53125 6-1.015625-1.476563-1.726563-2.375-1.863281-2.546875-2.683594-3.320313-7.546875-3.84375-10.871094-1.164063-3.324219 2.679688-3.84375 7.546875-1.164062 10.871094.125.15625 12.546874 16.085937 7.628906 28.8125-1.539063 3.980469.441406 8.457031 4.421875 9.996094.917969.351562 1.859375.519531 2.785156.519531 3.101563 0 6.027344-1.878906 7.210937-4.945312 5.339844-13.8125-.238281-27.976563-4.964843-36.410157 2.269531 1.929688 15.035156 13.484375 14.820312 28.828125-.058593 4.265625 3.351563 7.777344 7.617188 7.835938h.113281c4.21875 0 7.667969-3.386719 7.726562-7.621094.34375-24.542969-20.234374-40.835938-21.109374-41.515625zm0 0"/></g><path d="m69.191406 299.273438s.003906 0 .007813.003906c-16.273438-8.738282-29.589844-19.519532-40.054688-32.140625l-.027343-.003907s-69.375 131.265626 45.644531 152.691407c-31.265625-50.757813-5.570313-120.550781-5.570313-120.550781zm0 0" fill="#dd8858"/><path d="m9.257812 330.984375c-4.292968 36.699219 5.578126 77.675781 65.503907 88.839844-6.003907-9.75-9.902344-20.199219-12.289063-30.722657-35.769531-10.371093-49.800781-33.265624-53.214844-58.117187zm0 0" fill="#d97f4a"/><path d="m329.964844 299.273438c-.003906 0-.007813 0-.007813.003906 16.269531-8.738282 29.585938-19.519532 40.050781-32.140625l.027344-.003907s69.378906 131.265626-45.644531 152.691407c31.265625-50.757813 5.574219-120.550781 5.574219-120.550781zm0 0" fill="#dd8858"/><path d="m336.679688 389.101562c-2.386719 10.523438-6.285157 20.972657-12.289063 30.722657 59.925781-11.164063 69.796875-52.140625 65.503906-88.835938-3.414062 24.847657-17.445312 47.742188-53.214843 58.113281zm0 0" fill="#d97f4a"/><path d="m329.964844 299.273438c-31.953125 17.160156-75.230469 26.46875-130.386719 26.46875-55.160156 0-98.4375-9.308594-130.386719-26.46875 0 0-63.464844 172.34375 130.386719 172.34375 193.847656 0 130.386719-172.34375 130.386719-172.34375zm0 0" fill="#ad5e2e"/><path d="m199.578125 443.792969c-106.707031 0-135.445313-52.222657-139.71875-99.171875-4.257813 51.0625 11.042969 126.996094 139.71875 126.996094 128.671875 0 143.972656-75.933594 139.714844-126.996094-4.273438 46.949218-33.011719 99.171875-139.714844 99.171875zm0 0" fill="#a05528"/><path d="m199.578125 325.742188c127.238281 0 191.308594-49.511719 198.785156-130.78125 7.652344-83.25-42.804687-152.097657-42.804687-152.097657 10.847656-10.5 18.613281-21.09375 23.964844-29.820312 4.21875-6.882813-2.503907-15.214844-10.117188-12.527344-84.316406 29.78125-169.828125 26.316406-169.828125 26.316406s-85.515625 3.464844-169.832031-26.316406c-7.613282-2.6875-14.335938 5.644531-10.117188 12.527344 5.351563 8.726562 13.117188 19.320312 23.964844 29.820312 0 0-50.457031 68.847657-42.804688 152.097657 7.476563 81.269531 71.546876 130.78125 198.789063 130.78125zm0 0" fill="#dd8858"/><path d="m398.363281 167.132812c-7.476562 81.273438-71.546875 130.785157-198.785156 130.785157-127.242187 0-191.3125-49.511719-198.785156-130.785157-.109375-1.183593-.203125-2.367187-.289063-3.546874-.714844 10.140624-.699218 20.636718.289063 31.375 7.472656 81.269531 71.542969 130.78125 198.785156 130.78125 127.238281 0 191.308594-49.511719 198.785156-130.78125.984375-10.738282 1-21.234376.289063-31.375-.085938 1.179687-.183594 2.363281-.289063 3.546874zm0 0" fill="#d97f4a"/><path d="m299.363281 75.144531c-63.4375-23.007812-99.785156 32.867188-99.785156 32.867188s-36.351563-55.875-99.789063-32.867188c-63.4375 23.007813-66.046874 118.492188-39.984374 160.09375 22.3125 35.613281 80.785156 47.273438 118.757812 5.683594-2.425781-6.042969-3.832031-12.785156-3.832031-19.167969 0-17.980468 11.125-26.304687 24.847656-26.304687 13.71875 0 24.84375 8.324219 24.84375 26.304687 0 6.382813-1.40625 13.125-3.832031 19.167969 37.972656 41.589844 96.445312 29.929687 118.757812-5.683594 26.066406-41.597656 23.457032-137.085937-39.984375-160.09375zm0 0" fill="#ffe9c8"/><path d="m175.046875 216.734375c-37.972656 37.222656-93.605469 25.214844-115.242187-9.320313-7.878907-12.574218-13.132813-30.078124-14.882813-49.011718-2.6875 28.855468 3.226563 58.234375 14.882813 76.835937 22.3125 35.617188 80.785156 47.273438 118.757812 5.683594-2.425781-6.042969-3.832031-12.78125-3.832031-19.167969 0-1.765625.109375-3.4375.316406-5.019531zm0 0" fill="#ffdca7"/><path d="m339.347656 207.414062c-21.636718 34.535157-77.269531 46.542969-115.242187 9.320313.207031 1.582031.316406 3.253906.316406 5.019531 0 6.382813-1.40625 13.125-3.832031 19.167969 37.972656 41.589844 96.445312 29.929687 118.757812-5.683594 11.65625-18.601562 17.570313-47.980469 14.882813-76.835937-1.75 18.933594-7.003907 36.4375-14.882813 49.011718zm0 0" fill="#ffdca7"/><path d="m224.421875 221.753906c0-17.980468-11.125-26.304687-24.84375-26.304687-13.722656 0-24.847656 8.324219-24.847656 26.304687 0 17.980469 11.125 38.8125 24.847656 38.8125 13.71875 0 24.84375-20.832031 24.84375-38.8125zm0 0" fill="#ffa812"/><path d="m199.578125 232.742188c-9.925781 0-18.484375-10.894532-22.46875-23.726563-1.523437 3.527344-2.378906 7.761719-2.378906 12.738281 0 17.984375 11.125 38.8125 24.847656 38.8125 13.71875 0 24.84375-20.832031 24.84375-38.8125 0-4.976562-.855469-9.210937-2.378906-12.738281-3.980469 12.832031-12.542969 23.726563-22.464844 23.726563zm0 0" fill="#ff9a00"/><path d="m118.953125 138.1875c-12.136719 0-21.640625 12.417969-21.640625 28.277344 0 15.855468 9.503906 28.277344 21.640625 28.277344 12.132813 0 21.636719-12.421876 21.636719-28.277344 0-15.859375-9.503906-28.277344-21.636719-28.277344zm0 0" fill="#433f43"/><path d="m280.203125 138.1875c-12.136719 0-21.640625 12.417969-21.640625 28.277344 0 15.855468 9.503906 28.277344 21.640625 28.277344 12.132813 0 21.640625-12.421876 21.640625-28.277344 0-15.859375-9.507812-28.277344-21.640625-28.277344zm0 0" fill="#433f43"/></svg>