<svg id="Capa_1" enable-background="new 0 0 495.89 495.89" height="512" viewBox="0 0 495.89 495.89" width="512" xmlns="http://www.w3.org/2000/svg"><g><path d="m271.847 230.39h-22.36v17.13h-25.044v-17.13h-58.986l-88.38 71.08v93.74 81.31c0 10.7 8.67 19.37 19.37 19.37h321.5c10.7 0 19.37-8.67 19.37-19.37v-246.13z" fill="#fee97d"/><path d="m225.219 230.39h-59.762l-88.38 71.08v93.74c3.202.988 6.555 1.509 9.944 1.509h.001c8.838 0 17.203-3.384 23.608-9.581l114.588-111.413v-45.335z" fill="#fee45a"/><g><path d="m120.273 476.52v-81.31-93.74l88.38-71.08h-43.196l-88.38 71.08v93.74 81.31c0 10.7 8.67 19.37 19.37 19.37h43.196c-10.7 0-19.37-8.67-19.37-19.37z" fill="#fee45a"/></g><path d="m376.347 81.56-39.86-41c-5.14-5.29-13.61-5.41-18.9-.26l-156.874 152.522 3.397 3.397-10.471 10.471-3.544-3.544-105.438 102.514c-5.29 5.14-5.41 13.6-.26 18.9l39.86 40.99c1.48 1.53 3.93 1.56 5.46.08l43.06-41.87 91.417-88.882h-3.682v-.489-6.515-.119h8.443v.119h.046v2.331l104.206-101.315 43.06-41.87c1.53-1.49 1.57-3.93.08-5.46z" fill="#fee97d"/><path d="m139.042 125.171-24.052 21.379-11.086-11.202v6.86h-21.808v-4.376l-63.125 49.614 46.519 47.846c13.835 14.23 36.587 14.55 50.817.715l44.447-43.215 22.954-22.954z" fill="#fd8087"/><path d="m89.278 212.486-44.254-45.517-26.053 20.477 46.519 47.846c13.835 14.23 36.587 14.55 50.817.715l20.735-20.161c-14.265 11.073-34.879 9.892-47.764-3.36z" fill="#fe646f"/><path d="" fill="#fee45a"/><path d="m224.443 230.389h65.509v265.499h-65.509z" fill="#fd8087"/><g id="XMLID_185_"><g><path d="m224.443 276.48 47.403-46.09h-47.403z" fill="#fe646f"/></g><path d="m101.566 317.097-24.506-25.2c-4.148-4.269-4.871-10.587-2.233-15.57l-30.17 29.333c-5.29 5.14-5.41 13.6-.26 18.9l39.86 40.99c1.48 1.53 3.93 1.56 5.46.08l30.292-29.454z" fill="#fee45a"/></g><path d="m246.208 59.604-46.52-47.846-60.255 56.578v19.538l20.107 21.461-28.852 23.524 45.567 45.567 24.79-24.79 44.448-43.215c14.23-13.835 14.55-36.587.715-50.817z" fill="#fd8087"/><g><path d="m178.877 135.008c-1.955 0-3.908-.759-5.378-2.272-2.887-2.97-2.821-7.718.149-10.605l21.218-20.63c2.97-2.887 7.718-2.821 10.605.149s2.821 7.718-.149 10.605l-21.218 20.63c-1.457 1.418-3.342 2.123-5.227 2.123z" fill="#fe646f"/></g><g id="XMLID_187_"><g fill="#fd4755"><path d="m102.557 133.78 11.231 11.588-44.421 43.192c-14.23 13.84-36.98 13.52-50.82-.71-6.79-6.98-10.17-16.02-10.17-25.05 0-9.37 3.63-18.72 10.88-25.77l4.49-4.36c22.07-21.46 57.36-20.96 78.81 1.11z"/><path d="m200.567 10.88c13.83 14.23 13.51 36.98-.72 50.82l-44.45 43.21-11.25-11.57c-21.45-22.07-20.96-57.35 1.11-78.81l4.49-4.36c6.98-6.79 16.02-10.17 25.05-10.17 9.37 0 18.72 3.63 25.77 10.88z"/></g></g><g><path d="m114.52 197.582c-1.955 0-3.908-.759-5.378-2.272-2.887-2.97-2.821-7.718.149-10.605l21.218-20.63c2.97-2.887 7.718-2.821 10.605.149s2.821 7.718-.149 10.605l-21.218 20.63c-1.457 1.417-3.343 2.123-5.227 2.123z" fill="#fe646f"/></g><path d="m163.809 162.449h86.5v74.405h-86.5z" fill="#fd8087" transform="matrix(.717 -.697 .697 .717 -80.574 200.846)"/><g><path d="m368.381 160.695c-4.143 0-7.5-3.358-7.5-7.5v-7.72c0-4.142 3.357-7.5 7.5-7.5s7.5 3.358 7.5 7.5v7.72c0 4.142-3.357 7.5-7.5 7.5z" fill="#fee45a"/></g><g><path d="m396.5 181.348h-7.72c-4.143 0-7.5-3.358-7.5-7.5s3.357-7.5 7.5-7.5h7.72c4.143 0 7.5 3.358 7.5 7.5s-3.358 7.5-7.5 7.5z" fill="#fee45a"/></g><g><path d="m368.127 209.466c-4.143 0-7.5-3.358-7.5-7.5v-7.72c0-4.142 3.357-7.5 7.5-7.5s7.5 3.358 7.5 7.5v7.72c0 4.142-3.357 7.5-7.5 7.5z" fill="#fee45a"/></g><g><path d="m347.729 181.093h-7.721c-4.143 0-7.5-3.358-7.5-7.5s3.357-7.5 7.5-7.5h7.721c4.143 0 7.5 3.358 7.5 7.5s-3.357 7.5-7.5 7.5z" fill="#fee45a"/></g><path d="m455.361 66.904c-5.77-3.72-10.326-8.177-13.669-13.371-1.991-3.094-6.546-3.134-8.579-.067-3.466 5.226-8.082 9.744-13.881 13.536-3.167 2.071-3.093 6.679.098 8.712 5.402 3.441 9.819 8.039 13.421 13.597 2.082 3.214 6.791 2.969 8.759-.316 3.341-5.577 7.954-9.925 13.623-13.251 3.355-1.968 3.497-6.732.228-8.84z" fill="#ffa799"/><path d="m481.977 145.452-38.047-3.613c-4.103-.39-6-5.296-3.227-8.345l25.775-28.332c1.896-2.084 5.158-2.21 7.174-.241 9.962 9.73 14.457 21.712 13.799 35.817-.133 2.84-2.644 4.983-5.474 4.714z" fill="#00f2a6"/><path d="m465.646 214.647-26.016-27.268c-2.806-2.941-1.05-7.822 2.986-8.302l37.506-4.462c2.758-.328 5.271 1.686 5.501 4.454 1.138 13.685-3.252 25.516-12.853 35.601-1.934 2.03-5.189 2.005-7.124-.023z" fill="#a6e7f0"/><path d="m187.276 166.998-12.3 11.959c-8.516 8.28-22.132 8.089-30.412-.428l-26.834-27.599c-8.28-8.516-8.089-22.132.428-30.412l12.3-11.959c8.516-8.28 22.132-8.089 30.412.428l26.834 27.599c8.279 8.516 8.088 22.132-.428 30.412z" fill="#fd4755"/><path d="m164.099 158.994-26.834-27.599c-6.829-7.024-7.88-17.511-3.266-25.618-1.25.788-2.441 1.711-3.543 2.783l-12.3 11.959c-8.516 8.28-8.708 21.896-.428 30.412l26.834 27.599c8.28 8.516 21.896 8.708 30.412.428l12.3-11.959c1.492-1.451 2.713-3.072 3.693-4.794-8.409 5.301-19.659 4.203-26.868-3.211z" fill="#fb2b3a"/></g></svg>