<?xml version="1.0" encoding="utf-8"?>
<!-- Generator: Adobe Illustrator 22.1.0, SVG Export Plug-In . SVG Version: 6.00 Build 0)  -->
<svg version="1.1" id="Capa_1" xmlns="http://www.w3.org/2000/svg" xmlns:xlink="http://www.w3.org/1999/xlink" x="0px" y="0px"
	 viewBox="0 0 512 512" style="enable-background:new 0 0 512 512;" xml:space="preserve">
<style type="text/css">
	.st0{fill:#98D72A;}
	.st1{fill:#8BC727;}
	.st2{fill:#FFA549;}
	.st3{fill:#FF9200;}
	.st4{fill:#FFE2CB;}
	.st5{fill:#EFC89D;}
</style>
<g>
	<g>
		<path class="st0" d="M202.9,216.9c-30.9-11.5-67.1,5.9-78.7,12.3c-2.3,1.2-3.2,3.9-2.3,6.3c4.7,12.4,20.7,49.1,51.6,60.5
			c30.9,11.5,67.1-5.9,78.7-12.2c2.3-1.2,3.2-3.9,2.3-6.3C249.9,265,233.8,228.3,202.9,216.9L202.9,216.9z"/>
		<path class="st0" d="M387.8,229.1c-11.6-6.4-47.7-23.7-78.7-12.3c-30.9,11.5-47,48.1-51.6,60.5c-0.9,2.4,0.1,5.1,2.3,6.3
			c11.6,6.4,47.7,23.7,78.7,12.2c30.9-11.5,47-48.1,51.6-60.5C391,233,390,230.3,387.8,229.1L387.8,229.1z"/>
		<path class="st0" d="M187.9,186.5c24.9,9.2,53.9-4.2,64.2-9.7c2.3-1.2,3.3-4,2.4-6.4c-4.2-10.9-17.4-40-42.3-49.2
			c-24.9-9.2-54,4.2-64.2,9.7c-2.3,1.2-3.3,4-2.4,6.4C149.8,148.2,163,177.3,187.9,186.5L187.9,186.5z"/>
		<path class="st0" d="M257.5,170.4c-0.9,2.4,0.1,5.1,2.4,6.4c10.3,5.5,39.3,19,64.2,9.7c24.9-9.2,38.2-38.3,42.3-49.2
			c0.9-2.4-0.1-5.1-2.4-6.4c-10.3-5.5-39.3-19-64.2-9.7C274.9,130.4,261.7,159.5,257.5,170.4z"/>
		<path class="st0" d="M287.6,52.1c0.2-23.4-19.3-43.5-27.4-50.8c-1.9-1.8-4.9-1.8-6.9-0.1c-8.2,7.1-28,26.9-28.2,50.3
			c-0.2,23.4,19.3,43.5,27.4,50.8c1.9,1.8,4.9,1.8,6.9,0.1C267.6,95.3,287.4,75.6,287.6,52.1L287.6,52.1z"/>
	</g>
	<path class="st1" d="M387.8,229.1c-0.7-0.4-1.5-0.8-2.4-1.3c-7.7,16.1-22.7,40.5-46.9,49.5c-28,10.4-60.2-2.8-74.7-10.2v-88.4
		c12.5,6.1,38.1,16,60.3,7.7c24.9-9.2,38.2-38.3,42.3-49.2c0.9-2.4-0.1-5.1-2.4-6.4c-0.7-0.4-1.6-0.8-2.5-1.3
		c-6.6,13.2-18.8,31.3-37.5,38.3c-22.3,8.3-47.8-1.6-60.3-7.7V99.5c0-0.4,0-0.7-0.1-1c9.3-9.1,23.8-26.4,23.9-46.4
		c0-3.3-0.4-6.5-1-9.7c-4.2,19.4-20,35.1-27.2,41.3c-2,1.7-5,1.7-6.9-0.1c-6.9-6.3-22.2-22-26.3-41.1c-0.6,2.9-1,5.9-1,9
		c-0.2,20,14,37.5,23.1,46.7c-0.1,0.4-0.1,0.8-0.1,1.2v60.6c-12.5,6.1-38.1,16-60.3,7.7c-18.7-6.9-30.8-25.1-37.5-38.3
		c-0.9,0.5-1.8,0.9-2.5,1.3c-2.3,1.2-3.3,4-2.4,6.4c4.2,10.9,17.4,40,42.3,49.2c22.3,8.3,47.8-1.6,60.3-7.7v88.4
		c-14.5,7.3-46.7,20.5-74.7,10.2c-24.2-9-39.3-33.4-46.9-49.5c-0.9,0.5-1.7,0.9-2.4,1.3c-2.3,1.2-3.2,3.9-2.3,6.3
		c4.7,12.4,20.7,49.1,51.6,60.5c28,10.4,60.2-2.8,74.7-10.2v53.6c0,4.5,3.5,8.2,7.8,8.2s7.8-3.7,7.8-8.2v-53.6
		c14.5,7.3,46.7,20.5,74.7,10.2c30.9-11.5,47-48.1,51.6-60.5C391,233,390,230.3,387.8,229.1L387.8,229.1z"/>
	<path class="st2" d="M148.3,396.2h215.4l-21.5,111.6c-0.5,2.4-2.6,4.2-5.1,4.2H174.9c-2.5,0-4.6-1.8-5.1-4.2L148.3,396.2z"/>
	<path class="st3" d="M360.1,414.9l3.6-18.6H148.3l3.6,18.6H360.1z"/>
	<path class="st4" d="M374.3,396.2H137.7c-6.6,0-12-5.4-12-12v-38.6c0-6.6,5.4-12,12-12h236.6c6.6,0,12,5.4,12,12v38.6
		C386.3,390.8,381,396.2,374.3,396.2z"/>
	<path class="st5" d="M374.3,377.6H137.7c-6.6,0-12-5.4-12-12v18.6c0,6.6,5.4,12,12,12h236.6c6.6,0,12-5.4,12-12v-18.6
		C386.3,372.2,381,377.6,374.3,377.6z"/>
</g>
</svg>
