<svg height="511pt" viewBox="1 -19 511.99963 511" width="511pt" xmlns="http://www.w3.org/2000/svg"><path d="m502 462.5-64.214844-64.214844c-16.273437-16.273437-42.65625-16.273437-58.929687 0l-63.917969 63.917969zm0 0" fill="#dca98b"/><path d="m131.347656 340.875v78.625h-99.847656c-11.875 0-21.5 9.625-21.5 21.5s9.625 21.5 21.5 21.5h107.046875c24.367187 0 44.121094-19.753906 44.121094-44.117188v-72.882812zm0 0" fill="#79b2ff"/><path d="m181.285156 10.5h-47.277344c-10.234374 0-18.527343 8.292969-18.527343 18.527344v26.019531h84.332031v-26.019531c0-10.234375-8.292969-18.527344-18.527344-18.527344zm0 0" fill="#ffc15a"/><path d="m158.765625 127.25c-21.152344 0-38.296875-17.148438-38.296875-38.296875v-33.90625h76.59375v33.90625c0 21.148437-17.148438 38.296875-38.296875 38.296875zm0 0" fill="#f2d1a5"/><path d="m99.617188 247.667969v-66.09375c0-25.972657 21.058593-47.03125 47.03125-47.03125 15.042968 0 29.179687 7.195312 38.03125 19.363281l32.9375 45.269531h69.351562c12.167969 0 22.035156 9.863281 22.035156 22.035157 0 12.167968-9.867187 22.03125-22.035156 22.03125h-93.960938l-22.414062-25.195313 9.359375 11.953125v58.382812h58.171875c24.367188 0 44.117188 19.753907 44.117188 44.117188v108.5c0 11.875-9.625 21.5-21.5 21.5-11.871094 0-21.5-9.625-21.5-21.5v-97.300781h-86.382813c-29.40625 0-53.242187-23.835938-53.242187-53.238281 0-2.183594 0-60.460938 0-60.460938" fill="#79b2ff"/><path d="m179.953125 290.457031v-60.457031l-9.359375-11.953125 22.410156 25.195313h93.964844c12.167969 0 22.03125-9.863282 22.03125-22.03125 0-12.167969-9.863281-22.03125-22.03125-22.03125h-69.351562l-32.9375-45.273438c-8.851563-12.164062-22.984376-19.363281-38.03125-19.363281-25.972657 0-47.03125 21.058593-47.03125 47.03125v66.09375 42.789062zm0 0" fill="#ffcb7c"/><g fill="#cbe558"><path d="m383.871094 68.667969c0 18.597656 9.730468 34.914062 24.371094 44.164062 14.640624-9.25 24.371093-25.566406 24.371093-44.164062 0-18.601563-9.730469-34.917969-24.371093-44.167969-14.640626 9.25-24.371094 25.566406-24.371094 44.167969zm0 0"/><path d="m427.453125 175.210938c-16.539063 16.535156-22.394531 39.699218-17.601563 60.941406 21.242188 4.789062 44.402344-1.066406 60.941407-17.601563 16.535156-16.539062 22.390625-39.699219 17.601562-60.941406-21.242187-4.792969-44.40625 1.0625-60.941406 17.601563zm0 0"/><path d="m391.417969 138.472656c14.476562 14.476563 19.601562 34.75 15.40625 53.347656-18.59375 4.191407-38.867188-.933593-53.34375-15.410156-14.476563-14.476562-19.601563-34.75-15.410157-53.34375 18.597657-4.195312 38.871094.929688 53.347657 15.40625zm0 0"/><path d="m387.09375 245.949219c18.199219 18.203125 24.644531 43.691406 19.371094 67.070312-23.378906 5.273438-48.867188-1.171875-67.070313-19.371093-18.199219-18.203126-24.644531-43.691407-19.371093-67.070313 23.378906-5.269531 48.867187 1.171875 67.070312 19.371094zm0 0"/></g><path d="m509.070312 455.429688-64.214843-64.214844c-7.539063-7.542969-16.855469-12.261719-26.613281-14.15625v-129.527344c2.097656.175781 4.1875.261719 6.273437.261719 19.824219 0 38.957031-7.78125 53.347656-22.171875 18.457031-18.457032 26.039063-44.703125 20.285157-70.214844-.847657-3.765625-3.789063-6.703125-7.554688-7.554688-25.507812-5.75-51.757812 1.832032-70.210938 20.289063-.734374.730469-1.441406 1.480469-2.140624 2.234375v-52.335938c15.355468-11.746093 24.371093-29.8125 24.371093-49.375 0-21.460937-10.851562-41.132812-29.027343-52.617187-3.265626-2.0625-7.421876-2.0625-10.6875 0-18.175782 11.484375-29.027344 31.15625-29.027344 52.617187 0 19.5625 9.015625 37.628907 24.371094 49.375v13.125c-16.445313-16.285156-39.734376-22.960937-62.371094-17.855468-3.765625.851562-6.707032 3.792968-7.554688 7.554687-5.128906 22.75 1.632813 46.15625 18.089844 62.617188 12.835938 12.835937 29.898438 19.773437 47.578125 19.773437 1.417969 0 2.835937-.058594 4.257813-.144531v40.164063c-1.300782-1.503907-2.65625-2.972657-4.078126-4.394532-19.863281-19.859375-48.027343-28.132812-75.496093-22.230468-2.222657-15.511719-15.589844-27.472657-31.699219-27.472657h-64.261719l-29.941406-41.152343c-4.234375-5.824219-9.507813-10.699219-15.449219-14.484376 17.449219-7.289062 29.746094-24.527343 29.746094-44.585937v-23.90625h15.417969c5.523437 0 10-4.476563 10-10s-4.476563-10-10-10h-12.667969v-16.019531c0-15.730469-12.796875-28.527344-28.527344-28.527344h-47.277344c-15.730468 0-28.527343 12.796875-28.527343 28.527344v16.019531h-12.667969c-5.523438 0-10 4.476563-10 10s4.476562 10 10 10h17.65625v23.90625c0 15.570313 7.414062 29.4375 18.890625 38.277344-23.019531 7.339843-39.742187 28.921875-39.742187 54.34375v108.882812c0 23.402344 12.785156 43.863281 31.730468 54.796875v64.246094h-89.847656c-17.367188 0-31.5 14.132812-31.5 31.5s14.132812 31.5 31.5 31.5h12.875c5.523438 0 10-4.476562 10-10s-4.476562-10-10-10h-12.875c-6.339844 0-11.5-5.160156-11.5-11.5s5.160156-11.5 11.5-11.5h99.847656c5.523438 0 10-4.476562 10-10v-66.871094c3.734375.691406 7.578125 1.070313 11.511719 1.070313h19.808594v64.679687c0 18.816406-15.308594 34.121094-34.121094 34.121094h-14.171875c-5.523438 0-10 4.476562-10 10s4.476562 10 10 10h14.171875c29.84375 0 54.121094-24.277344 54.121094-54.121094v-64.679687h36.574219v87.300781c0 17.367188 14.132812 31.5 31.5 31.5 17.371093 0 31.5-14.132812 31.5-31.5v-108.5c0-29.84375-24.273438-54.121094-54.117188-54.121094h-48.171875v-25.617187c.976563.3125 2.003906.480469 3.054687.480469h93.960938c8.164062 0 15.621094-3.074219 21.285156-8.121094.605469 20.691406 9.007813 40.53125 24.070313 55.597656 15.648437 15.648438 36.449219 24.105469 58 24.105469 2.632812 0 5.273437-.132813 7.917969-.386719v52.65625c-9.703126 1.914062-18.957032 6.617188-26.457032 14.121094l-63.917968 63.917968c-3.90625 3.902344-3.90625 10.234376 0 14.140626 3.902343 3.90625 10.238281 3.90625 14.140624 0l63.917969-63.914063c12.347657-12.351563 32.4375-12.351563 44.789063 0l64.214844 64.210937c1.953124 1.953126 4.511718 2.929688 7.070312 2.929688s5.117188-.976562 7.070312-2.929688c3.90625-3.90625 3.90625-10.238281 0-14.140624zm-110.988281-272.355469c-13.859375 1.175781-27.523437-3.730469-37.53125-13.734375-10.003906-10.007813-14.917969-23.667969-13.734375-37.53125 13.859375-1.179688 27.523438 3.730468 37.53125 13.734375 10.003906 10.007812 14.914063 23.671875 13.734375 37.53125zm36.441407-.792969c12.019531-12.015625 28.527343-17.769531 45.191406-15.992188 1.773437 16.65625-3.976563 33.171876-15.992188 45.1875-12.019531 12.019532-28.527344 17.769532-45.191406 15.992188-.179688-1.695312-.261719-3.386719-.289062-5.074219v-1.945312c.277343-14.203125 5.957031-27.84375 16.28125-38.167969zm-26.28125-145.34375c9.097656 7.957031 14.371093 19.410156 14.371093 31.730469 0 12.316406-5.273437 23.769531-14.371093 31.726562-9.097657-7.957031-14.371094-19.40625-14.371094-31.726562 0-12.320313 5.273437-23.773438 14.371094-31.730469zm-221.179688 52.015625c0 15.601563-12.695312 28.296875-28.296875 28.296875-15.605469 0-28.296875-12.695312-28.296875-28.296875v-23.90625h56.59375zm-61.582031-59.925781c0-4.703125 3.824219-8.527344 8.527343-8.527344h47.277344c4.703125 0 8.527344 3.824219 8.527344 8.527344v16.019531h-64.332031zm112.644531 269.351562c18.8125 0 34.117188 15.308594 34.117188 34.121094v108.5c0 6.339844-5.15625 11.5-11.5 11.5-6.339844 0-11.5-5.160156-11.5-11.5v-97.300781c0-5.519531-4.476563-10-10-10h-86.386719c-21.132813 0-38.765625-15.246094-42.5-35.320313zm48.84375-65.136718h-89.476562l-19.425782-21.839844c-3.671875-4.128906-9.992187-4.496094-14.121094-.828125-4.125 3.671875-4.496093 9.992187-.824218 14.121093l6.832031 7.675782v46.007812h-60.335937v-96.804687c0-20.417969 16.613281-37.03125 37.03125-37.03125 11.804687 0 23 5.699219 29.945312 15.246093l32.9375 45.269532c1.882812 2.589844 4.886719 4.117187 8.085938 4.117187h69.351562c6.636719 0 12.035156 5.398438 12.035156 12.035157 0 6.632812-5.402344 12.03125-12.035156 12.03125zm110.851562 71.132812c-18.90625 2.253906-37.714843-4.160156-51.351562-17.796875s-20.058594-32.449219-17.800781-51.355469c18.902343-2.265625 37.71875 4.164063 51.355469 17.800782 11.722656 11.722656 18.09375 27.273437 18.21875 43.417968v1.414063c-.03125 2.167969-.164063 4.34375-.421876 6.519531zm0 0"/><path d="m84.371094 452.5c-2.632813 0-5.199219 1.070312-7.070313 2.929688-1.859375 1.859374-2.921875 4.441406-2.921875 7.070312s1.0625 5.210938 2.921875 7.070312c1.871094 1.859376 4.4375 2.929688 7.070313 2.929688 2.628906 0 5.207031-1.070312 7.078125-2.929688 1.859375-1.859374 2.929687-4.441406 2.929687-7.070312s-1.070312-5.210938-2.929687-7.070312c-1.871094-1.859376-4.449219-2.929688-7.078125-2.929688zm0 0"/></svg>