<?xml version="1.0" encoding="iso-8859-1"?>
<!-- Generator: Adobe Illustrator 19.1.0, SVG Export Plug-In . SVG Version: 6.00 Build 0)  -->
<svg version="1.1" id="Capa_1" xmlns="http://www.w3.org/2000/svg" xmlns:xlink="http://www.w3.org/1999/xlink" x="0px" y="0px"
	 viewBox="0 0 431.438 431.438" style="enable-background:new 0 0 431.438 431.438;" xml:space="preserve">
<g>
	<rect x="194.525" y="272.694" style="fill:#FFCC66;" width="42.176" height="7.038"/>
	<path style="fill:#FF6666;" d="M194.525,400.348c0,11.629,9.46,21.09,21.088,21.09c11.628,0,21.088-9.461,21.088-21.09V289.733
		h-42.176V400.348z"/>
	<path style="fill:#999999;" d="M215.719,10.302c-14.924,5.561-40.445,21.708-50.408,44.1
		c-25.521,57.355-22.67,142.535-21.541,163.136h43.959c0.779-12.818,4.91-45.881,26.771-51.372c0.828-0.208,1.654-0.174,2.43,0.021
		l0.006-0.022c21.862,5.492,25.994,38.555,26.773,51.372h43.958c1.126-20.61,3.964-105.821-21.54-163.136
		C256.164,32.01,230.643,15.862,215.719,10.302z"/>
	<path style="fill:#CCCCCC;" d="M215.718,176.236c-13.319,4.692-17.358,29.069-18.054,42.235
		c6.994,2.614,11.51,10.299,13.818,16.701h8.473c2.307-6.4,6.822-14.084,13.814-16.699
		C233.061,205.305,229.005,180.923,215.718,176.236z"/>
	<rect x="206.197" y="245.171" style="fill:#CC9933;" width="18.832" height="17.524"/>
	<path style="fill:#663333;" d="M217.322,0.257c-1.083-0.367-2.197-0.323-3.201,0.018l-0.006-0.018
		c-16.876,5.713-46.232,23.765-57.941,50.08c-30.09,67.62-22.423,168.347-22.082,172.601c0.209,2.598,2.378,4.611,4.984,4.611
		c0,0,53.436,0,53.472,0c3.319,0,6.155,3.765,8.079,7.68c-2.489,0.286-4.43,2.377-4.43,4.942v22.523h-6.672c-2.762,0-5,2.239-5,5
		v132.653c0,17.143,13.946,31.09,31.088,31.09s31.088-13.947,31.088-31.09V267.694c0-2.761-2.238-5-5-5h-6.672v-22.523
		c0-2.497-1.836-4.549-4.229-4.922c1.924-3.923,4.763-7.711,8.089-7.711c0.036,0,53.472,0,53.472,0c2.606,0,4.775-2.003,4.984-4.601
		c0.341-4.254,8.008-104.981-22.082-172.601C263.555,24.022,234.198,5.97,217.322,0.257z M236.701,400.348
		c0,11.629-9.46,21.09-21.088,21.09c-11.628,0-21.088-9.461-21.088-21.09V289.733h42.176V400.348z M236.701,272.694v7.038h-42.176
		v-7.038H236.701z M206.197,262.694v-17.523h18.832v17.523H206.197z M219.955,235.171h-8.473
		c-2.309-6.401-6.824-14.086-13.818-16.701c0.695-13.166,4.734-37.542,18.054-42.235c13.287,4.687,17.343,29.069,18.051,42.236
		C226.777,221.087,222.262,228.771,219.955,235.171z M287.667,217.538h-43.958c-0.779-12.818-4.911-45.881-26.773-51.372
		l-0.006,0.022c-0.775-0.196-1.601-0.23-2.43-0.021c-21.861,5.491-25.992,38.554-26.771,51.372H143.77
		c-1.129-20.602-3.98-105.782,21.541-163.136c9.963-22.392,35.484-38.54,50.408-44.1c14.924,5.561,40.445,21.708,50.408,44.1
		C291.631,111.717,288.793,196.928,287.667,217.538z"/>
</g>
<g>
</g>
<g>
</g>
<g>
</g>
<g>
</g>
<g>
</g>
<g>
</g>
<g>
</g>
<g>
</g>
<g>
</g>
<g>
</g>
<g>
</g>
<g>
</g>
<g>
</g>
<g>
</g>
<g>
</g>
</svg>
