<svg height="464pt" viewBox="-40 0 464 464" width="464pt" xmlns="http://www.w3.org/2000/svg"><path d="m64 0h320v464h-320zm0 0" fill="#d9ccbc"/><path d="m0 0h64v464h-64zm0 0" fill="#a78966"/><path d="m252.289062 83.144531c-15.503906 15.640625-15.449218 40.871094.121094 56.445313 15.574219 15.570312 40.804688 15.625 56.445313.121094 15.617187-15.613282 45.25-101.816407 45.25-101.816407s-86.203125 29.632813-101.816407 45.25zm0 0" fill="#5eac24"/><path d="m195.710938 83.144531c-15.613282-15.617187-101.816407-45.25-101.816407-45.25s29.601563 86.203125 45.25 101.816407c15.640625 15.503906 40.871094 15.449218 56.445313-.121094 15.570312-15.574219 15.625-40.804688.121094-56.445313zm0 0" fill="#4e901e"/><g fill="#00665a"><path d="m320.167969 71.832031c-1.5-1.503906-3.535157-2.347656-5.660157-2.347656s-4.160156.84375-5.660156 2.347656l-76.449218 76.449219c-3.230469 3.261719-6.050782 6.902344-8.398438 10.847656-2.347656-3.945312-5.167969-7.585937-8.398438-10.847656l-76.449218-76.449219c-3.125-3.125-8.195313-3.125-11.320313 0s-3.125 8.195313 0 11.320313l76.449219 76.441406c7.523438 7.484375 11.746094 17.671875 11.71875 28.285156v36.121094c0 4.417969 3.582031 8 8 8s8-3.582031 8-8v-36.121094c-.027344-10.613281 4.191406-20.796875 11.710938-28.285156l76.457031-76.441406c1.503906-1.5 2.347656-3.535156 2.347656-5.660156s-.84375-4.160157-2.347656-5.660157zm0 0"/><path d="m328 360h-224c-4.417969 0-8-3.582031-8-8s3.582031-8 8-8h224c4.417969 0 8 3.582031 8 8s-3.582031 8-8 8zm0 0"/><path d="m328 392h-224c-4.417969 0-8-3.582031-8-8s3.582031-8 8-8h224c4.417969 0 8 3.582031 8 8s-3.582031 8-8 8zm0 0"/><path d="m328 424h-224c-4.417969 0-8-3.582031-8-8s3.582031-8 8-8h224c4.417969 0 8 3.582031 8 8s-3.582031 8-8 8zm0 0"/></g><path d="m160 256c0 26.507812 21.492188 48 48 48h32c26.507812 0 48-21.492188 48-48v-32h-128zm0 0" fill="#8b5e3c"/></svg>