<?xml version="1.0" encoding="iso-8859-1"?>
<!-- Generator: Adobe Illustrator 19.0.0, SVG Export Plug-In . SVG Version: 6.00 Build 0)  -->
<svg version="1.1" id="Capa_1" xmlns="http://www.w3.org/2000/svg" xmlns:xlink="http://www.w3.org/1999/xlink" x="0px" y="0px"
	 viewBox="0 0 512 512" style="enable-background:new 0 0 512 512;" xml:space="preserve">
<path style="fill:#725D57;" d="M451,0v452L61,482V45c0-24.901,20.099-45,45-45h15l30,39.3h30L211,0H451z"/>
<polygon style="fill:#68544F;" points="451,0 451,452 256,467 256,0 "/>
<path style="fill:#FED2A4;" d="M451,452v60H91c-16.5,0-30-13.5-30-30s13.5-30,30-30H451z"/>
<path style="fill:#FF7C96;" d="M205.902,248.852C193.231,243.637,179.813,241,166,241h-45v45c0,57.891,47.109,105,105,105h30
	L205.902,248.852z"/>
<path style="fill:#FF5C7D;" d="M346,241c-13.813,0-27.231,2.637-39.902,7.852L256,391h30c57.891,0,105-47.109,105-105v-45H346z"/>
<g>
	<rect x="151" y="181" style="fill:#FF7C96;" width="30" height="30"/>
	<rect x="241" y="121" style="fill:#FF7C96;" width="30" height="30"/>
</g>
<g>
	<rect x="331" y="181" style="fill:#FF5C7D;" width="30" height="30"/>
	<rect x="256" y="121" style="fill:#FF5C7D;" width="15" height="30"/>
</g>
<path style="fill:#FF9AAE;" d="M264.401,183.401l-8.401-5.4l-8.401,5.4C244.9,185.501,181,228.999,181,286
	c0,57.299,64.2,98.101,67.2,99.6l7.8,5.099l7.8-5.099c2.999-1.5,67.2-42.301,67.2-99.6C331,228.999,267.1,185.501,264.401,183.401z"
	/>
<path style="fill:#FF7C96;" d="M331,286c0,57.299-64.2,98.101-67.2,99.6l-7.8,5.1V178.001l8.401,5.4
	C267.1,185.501,331,228.999,331,286z"/>
<polygon style="fill:#68F2EE;" points="166,107.772 211,130.272 211,0 121,0 121,130.272 "/>
<rect x="256" y="452" style="fill:#FFBD86;" width="195" height="60"/>
<g>
</g>
<g>
</g>
<g>
</g>
<g>
</g>
<g>
</g>
<g>
</g>
<g>
</g>
<g>
</g>
<g>
</g>
<g>
</g>
<g>
</g>
<g>
</g>
<g>
</g>
<g>
</g>
<g>
</g>
</svg>
